<?xml version="1.0" encoding="UTF-8"?> <svg xmlns="http://www.w3.org/2000/svg" xmlns:xlink="http://www.w3.org/1999/xlink" viewBox="0 0 852 1019.2"> <defs> <style>.cls-1{fill:#fff;}.cls-2{fill:url(#radial-gradient);}.cls-3{fill:url(#radial-gradient-2);}</style> <radialGradient id="radial-gradient" cx="860.44" cy="728.12" r="678.28" gradientUnits="userSpaceOnUse"> <stop offset="0" stop-color="#fff"></stop> <stop offset="1" stop-color="#e6e6e6"></stop> </radialGradient> <radialGradient id="radial-gradient-2" cx="415.83" cy="519.7" r="414.06" gradientUnits="userSpaceOnUse"> <stop offset="0.07" stop-color="#f2c53d"></stop> <stop offset="0.33" stop-color="#f2913d"></stop> <stop offset="1" stop-color="#f2490c"></stop> </radialGradient> </defs> <g id="Layer_2" data-name="Layer 2"> <g id="Layer_2-2" data-name="Layer 2"> <path class="cls-1" d="M645,202.94a65.81,65.81,0,0,0-101.62-7.08c-13.28,14.16-25.52,27.65-39.68,43.82-18.26,20.88-36.1,42.71-53.29,64.73C286.81,523.7,146.57,841.05,366,1019.2c0,0-366-59-366-369C0,477.2,306,.2,426,.2,478.12-5.81,593.26,126,645,202.94Z"></path> <path class="cls-2" d="M852,650.2c0,310-366,369-366,369s117-95,117-244c0-141-137-408-177-408-15.79,0-42.7,38-78,96,49.3-91,96.75-155.74,155.73-223.52,14.2-16.16,26.38-29.65,39.68-43.82A65.81,65.81,0,0,1,645,202.94Q676,246.5,704.11,292C762.38,388.83,846.91,537.39,852,650.2Z"></path> <path class="cls-3" d="M426,510.2c-70,0-147.16,474,0,474C572,984.2,493,510.2,426,510.2Z"></path> </g> </g> </svg> 